<svg id="Capa_1" enable-background="new 0 0 512 512" height="512" viewBox="0 0 512 512" width="512" xmlns="http://www.w3.org/2000/svg" xmlns:xlink="http://www.w3.org/1999/xlink"><linearGradient id="SVGID_1_" gradientUnits="userSpaceOnUse" x1="256" x2="256" y1="512" y2="0"><stop offset="0" stop-color="#ffe59a"/><stop offset="1" stop-color="#ffffd5"/></linearGradient><linearGradient id="SVGID_2_" gradientUnits="userSpaceOnUse" x1="256" x2="256" y1="407" y2="105"><stop offset="0" stop-color="#ffde00"/><stop offset="1" stop-color="#fd5900"/></linearGradient><g><g><circle cx="256" cy="256" fill="url(#SVGID_1_)" r="256"/></g><g><g><g><path d="m238.214 282.647c-14.711 0-26.679-11.953-26.679-26.647s11.967-26.647 26.679-26.647 26.679 11.953 26.679 26.647-11.967 26.647-26.679 26.647c15.221 0 29.142 7.985 37.218 20.323 7.616-7.432 13.111-17.031 15.132-27.565 3.422-17.912-1.911-35.477-14.659-48.194-10.196-10.183-23.517-15.631-37.621-15.631-27.074 0-48.028 19.887-52.419 42.781-3.335 17.459 1.484 35.221 15.15 48.578 8.078-12.321 21.992-20.292 37.199-20.292zm0 17.765c-9.228 0-17.555 4.938-22.371 12.456 14.024 6.559 29.872 7.312 44.862.244-4.791-7.649-13.169-12.7-22.491-12.7zm0-53.294c-4.898 0-8.893 3.981-8.893 8.882s3.995 8.882 8.893 8.882 8.893-3.981 8.893-8.882-3.995-8.882-8.893-8.882zm-106.711-80.163c-.001-.001-.002-.001-.003-.002v213.4c0 14.694 11.967 26.647 26.679 26.647h177.857c4.915 0 8.893-3.973 8.893-8.882v-222.059h-186.75c-9.671 0-19.59-3.75-26.676-9.104zm36.888 84.075c10.624-55.368 79.797-76.644 120.088-36.379 16.726 16.698 24.038 40.647 19.557 64.085-6.176 32.19-35.416 57.18-69.597 57.18-44.71-.001-78.558-40.375-70.048-84.886zm203.216-74.971h-8.893v53.294h17.786v-44.412c0-4.909-3.977-8.882-8.893-8.882zm-8.893 106.588h17.786v-35.529h-17.786zm0 71.059h8.893c4.915 0 8.893-3.973 8.893-8.882v-44.412h-17.786zm-26.678-248.706h-177.857c-14.711 0-26.679 11.953-26.679 26.647s11.967 26.647 26.679 26.647h186.75v-44.401c0-4.912-3.982-8.893-8.893-8.893z" fill="url(#SVGID_2_)"/></g></g></g></g></svg>