<svg id="Capa_1" enable-background="new 0 0 512 512" height="512" viewBox="0 0 512 512" width="512" xmlns="http://www.w3.org/2000/svg" xmlns:xlink="http://www.w3.org/1999/xlink"><linearGradient id="SVGID_1_" gradientUnits="userSpaceOnUse" x1="256" x2="256" y1="512" y2="0"><stop offset="0" stop-color="#addcff"/><stop offset=".5028" stop-color="#eaf6ff"/><stop offset="1" stop-color="#eaf6ff"/></linearGradient><linearGradient id="SVGID_2_" gradientUnits="userSpaceOnUse" x1="256" x2="256" y1="407" y2="105"><stop offset="0" stop-color="#00c0ff"/><stop offset="1" stop-color="#5558ff"/></linearGradient><g><g><circle cx="256" cy="256" fill="url(#SVGID_1_)" r="256"/></g><g><g><path d="m241.955 228.543 51.89-25.946c11.245 16.13 29.871 26.755 50.978 26.755 34.28 0 62.176-27.896 62.176-62.176s-27.895-62.176-62.175-62.176-62.177 27.896-62.177 62.176c0 6.832 1.377 13.291 3.422 19.445l-51.939 25.969c3.222 4.952 5.752 10.33 7.825 15.953zm-74.779-34.72c-34.28 0-62.176 27.897-62.176 62.177s27.896 62.176 62.176 62.176 62.177-27.896 62.177-62.176-27.896-62.177-62.177-62.177zm177.648 88.824c-21.108 0-39.733 10.626-50.978 26.755l-51.89-25.946c-2.073 5.623-4.604 11.001-7.825 15.952l51.939 25.969c-2.045 6.154-3.422 12.613-3.422 19.445 0 34.28 27.896 62.177 62.177 62.177s62.175-27.895 62.175-62.176c0-34.28-27.896-62.176-62.176-62.176z" fill="url(#SVGID_2_)"/></g></g></g></svg>