<svg id="Capa_1" enable-background="new 0 0 512 512" height="512" viewBox="0 0 512 512" width="512" xmlns="http://www.w3.org/2000/svg" xmlns:xlink="http://www.w3.org/1999/xlink"><linearGradient id="SVGID_1_" gradientUnits="userSpaceOnUse" x1="256" x2="256" y1="512" y2="0"><stop offset="0" stop-color="#ffc8d1"/><stop offset="1" stop-color="#fff6f7"/></linearGradient><linearGradient id="SVGID_2_" gradientUnits="userSpaceOnUse" x1="256" x2="256" y1="407" y2="105"><stop offset="0" stop-color="#ffa68d"/><stop offset="1" stop-color="#fd3a84"/></linearGradient><circle cx="256" cy="256" fill="url(#SVGID_1_)" r="256"/><g><g><path d="m256.711 193.823c9.802 0 17.765-7.972 17.765-17.765s-7.963-17.765-17.765-17.765-17.765 7.972-17.765 17.765c.001 9.794 7.963 17.765 17.765 17.765zm-36.553 112.487c-7.948-5.793-19.042-4.011-24.808 3.921-5.828 8.018-3.938 19.114 3.938 24.808 7.928 5.777 19.066 3.981 24.808-3.921 5.828-8.017 3.938-19.114-3.938-24.808zm35.842-59.192c-4.892 0-8.882 3.981-8.882 8.882s3.99 8.882 8.882 8.882 8.882-3.981 8.882-8.882-3.99-8.882-8.882-8.882zm151 8.882c0-83.263-67.745-151-151-151s-151 67.737-151 151 67.745 151 151 151 151-67.737 151-151zm-150.289-115.471c19.586 0 35.529 15.934 35.529 35.529s-15.943 35.529-35.529 35.529c-19.587 0-35.53-15.934-35.53-35.529.001-19.594 15.944-35.529 35.53-35.529zm-109.815 79.794c6.065-18.678 26.073-28.888 44.759-22.822 18.632 6.063 28.868 26.144 22.813 44.767-6.065 18.681-26.072 28.886-44.759 22.822-18.632-6.063-28.867-26.143-22.813-44.767zm91.565 121.239c-11.484 15.805-33.719 19.39-49.616 7.85-15.879-11.506-19.418-33.739-7.859-49.625 11.544-15.914 33.829-19.377 49.616-7.85 15.879 11.506 19.419 33.739 7.859 49.625zm-9.108-85.562c0-14.694 11.953-26.647 26.647-26.647s26.647 11.953 26.647 26.647-11.953 26.647-26.647 26.647-26.647-11.953-26.647-26.647zm109.433 70.235c-3.084 19.61-21.565 32.619-40.647 29.527-19.422-3.075-32.608-21.282-29.527-40.647 3.072-19.535 21.442-32.599 40.647-29.536 19.485 3.097 32.599 21.351 29.527 40.656zm4.927-61.144c-18.68 6.062-38.69-4.133-44.758-22.822-6.04-18.565 4.042-38.66 22.813-44.767 18.777-6.073 38.712 4.199 44.759 22.822 6.054 18.623-4.182 38.703-22.814 44.767zm-146.142-28.304c3.019-9.316-2.082-19.361-11.398-22.388-9.126-2.984-19.31 1.906-22.379 11.406-3.019 9.316 2.082 19.361 11.398 22.388 9.458 3.086 19.404-2.2 22.379-11.406zm108.913 66.34c-9.695-1.526-18.785 5.054-20.332 14.772-1.544 9.697 5.087 18.792 14.763 20.315 9.53 1.559 18.768-4.939 20.332-14.763 1.538-9.654-5.031-18.774-14.763-20.324zm20.766-88.728c-9.344 3.037-14.443 13.065-11.398 22.379 3.009 9.331 13.032 14.447 22.379 11.415 9.316-3.027 14.417-13.072 11.398-22.388-3.034-9.391-13.133-14.429-22.379-11.406zm70.868 174.836c-10.166 0-19.769-3.646-27.48-9.739-4.411 4.1-9.039 7.949-13.872 11.563 11.205 9.973 25.847 15.941 41.352 15.941 4.91 0 8.882-3.973 8.882-8.882 0-4.91-3.973-8.883-8.882-8.883z" fill="url(#SVGID_2_)"/></g></g></svg>