<svg id="Capa_1" enable-background="new 0 0 512 512" height="512" viewBox="0 0 512 512" width="512" xmlns="http://www.w3.org/2000/svg" xmlns:xlink="http://www.w3.org/1999/xlink"><linearGradient id="SVGID_1_" gradientUnits="userSpaceOnUse" x1="256" x2="256" y1="512" y2="0"><stop offset="0" stop-color="#ffbef9"/><stop offset="1" stop-color="#fff1ff"/></linearGradient><linearGradient id="SVGID_2_" gradientUnits="userSpaceOnUse" x1="256" x2="256" y1="407" y2="105"><stop offset="0" stop-color="#ff81ff"/><stop offset="1" stop-color="#a93aff"/></linearGradient><g><g><circle cx="256" cy="256" fill="url(#SVGID_1_)" r="256"/></g><g><g><path d="m122.765 295.673v84.679c0 14.694 11.953 26.647 26.647 26.647h71.059c14.694 0 26.647-11.953 26.647-26.647v-84.71c-17.542 14.416-39.434 22.533-62.177 22.533-22.796.001-44.723-8.134-62.176-22.502zm124.353-150.405v-13.621c0-14.694-11.953-26.647-26.647-26.647h-71.059c-14.694 0-26.647 11.953-26.647 26.647v13.651c17.542-14.417 39.434-22.533 62.176-22.533 22.796 0 44.723 8.135 62.177 22.503zm-62.177 48.555c-14.694 0-26.647 11.953-26.647 26.647s11.953 26.647 26.647 26.647 26.647-11.953 26.647-26.647-11.953-26.647-26.647-26.647zm213.177-35.529h-106.589c-4.91 0-8.882 3.973-8.882 8.882v8.882h-28.885c-.824 0-1.565.258-2.321.467-2.039-3.108-4.101-6.209-6.578-9.046-15.267-17.123-37.108-26.951-59.921-26.951s-44.655 9.828-59.991 27.02c-12.856 14.739-19.951 33.536-19.951 52.923s7.095 38.184 20.02 52.991c15.267 17.123 37.108 26.951 59.921 26.951s44.655-9.828 59.991-27.02c2.453-2.812 4.494-5.892 6.519-8.976.754.207 1.491.466 2.312.466h28.885v8.882c0 4.91 3.973 8.882 8.882 8.882h106.588c4.91 0 8.882-3.973 8.882-8.882v-106.589c0-4.909-3.973-8.882-8.882-8.882zm-213.177 106.588c-24.496 0-44.412-19.925-44.412-44.412s19.916-44.412 44.412-44.412 44.412 19.925 44.412 44.412-19.916 44.412-44.412 44.412zm97.706-17.764h-22.487c3.019-8.52 4.722-17.499 4.722-26.647 0-9.145-1.702-18.121-4.727-26.647h22.492z" fill="url(#SVGID_2_)"/></g></g></g></svg>