<svg id="Capa_1" enable-background="new 0 0 512 512" height="512" viewBox="0 0 512 512" width="512" xmlns="http://www.w3.org/2000/svg" xmlns:xlink="http://www.w3.org/1999/xlink"><linearGradient id="SVGID_1_" gradientUnits="userSpaceOnUse" x1="256" x2="256" y1="512" y2="0"><stop offset="0" stop-color="#ffc8d1"/><stop offset="1" stop-color="#fff6f7"/></linearGradient><linearGradient id="SVGID_2_" gradientUnits="userSpaceOnUse" x1="256" x2="256" y1="380.5" y2="131.5"><stop offset="0" stop-color="#ffa68d"/><stop offset="1" stop-color="#fd3a84"/></linearGradient><circle cx="256" cy="256" fill="url(#SVGID_1_)" r="256"/><g><g><path d="m158.294 327.143h88.823v-53.357h-88.823zm168.765-106.714h-213.177c-4.91 0-8.882 3.977-8.882 8.893v142.286c0 4.915 3.973 8.893 8.882 8.893h213.177c4.91 0 8.882-3.978 8.882-8.893v-142.287c0-4.915-3.973-8.892-8.882-8.892zm-62.177 115.607c0 4.915-3.973 8.893-8.882 8.893h-106.588c-4.91 0-8.882-3.977-8.882-8.893v-71.143c0-4.915 3.973-8.893 8.882-8.893h106.588c4.91 0 8.882 3.977 8.882 8.893zm26.647-62.25c-4.905 0-8.882-3.982-8.882-8.893s3.977-8.893 8.882-8.893 8.882 3.982 8.882 8.893c.001 4.911-3.976 8.893-8.882 8.893zm111.255-34.243c-2.602-1.633-5.881-1.78-8.64-.391l-40.439 20.243v82.137l40.439 20.243c2.727 1.365 6.014 1.244 8.64-.391 2.62-1.624 4.216-4.481 4.216-7.564v-106.713c0-3.083-1.596-5.94-4.216-7.564zm-192.094-36.9c.585-2.875.898-5.848.898-8.893 0-24.516-19.916-44.464-44.412-44.464s-44.412 19.948-44.412 44.464c0 3.045.312 6.018.898 8.893zm104.213 0c1.991-5.591 3.273-11.519 3.273-17.786 0-29.423-23.906-53.357-53.294-53.357s-53.294 23.934-53.294 53.357c0 6.267 1.284 12.195 3.275 17.786z" fill="url(#SVGID_2_)"/></g></g></svg>