<svg id="Capa_1" enable-background="new 0 0 512 512" height="512" viewBox="0 0 512 512" width="512" xmlns="http://www.w3.org/2000/svg" xmlns:xlink="http://www.w3.org/1999/xlink"><linearGradient id="SVGID_1_" gradientUnits="userSpaceOnUse" x1="256" x2="256" y1="512" y2="0"><stop offset="0" stop-color="#addcff"/><stop offset=".5028" stop-color="#eaf6ff"/><stop offset="1" stop-color="#eaf6ff"/></linearGradient><linearGradient id="SVGID_2_" gradientUnits="userSpaceOnUse" x1="256" x2="256" y1="389" y2="123"><stop offset="0" stop-color="#00c0ff"/><stop offset="1" stop-color="#5558ff"/></linearGradient><g><circle cx="256" cy="256" fill="url(#SVGID_1_)" r="256"/></g><g><g><g><path d="m229.353 247.133h-53.294v53.2h53.294zm-124.353 133c0 4.901 3.973 8.867 8.882 8.867h284.235c4.91 0 8.882-3.966 8.882-8.867v-168.466h-301.999zm168.765-150.733h71.059c4.91 0 8.882 3.966 8.882 8.867s-3.973 8.867-8.882 8.867h-71.059c-4.91 0-8.882-3.966-8.882-8.867-.001-4.901 3.972-8.867 8.882-8.867zm0 35.467h71.059c4.91 0 8.882 3.966 8.882 8.867s-3.973 8.867-8.882 8.867h-71.059c-4.91 0-8.882-3.966-8.882-8.867-.001-4.902 3.972-8.867 8.882-8.867zm0 35.466h71.059c4.91 0 8.882 3.966 8.882 8.867s-3.973 8.867-8.882 8.867h-71.059c-4.91 0-8.882-3.966-8.882-8.867-.001-4.901 3.972-8.867 8.882-8.867zm-115.471-62.066c0-4.901 3.973-8.867 8.882-8.867h71.059c4.91 0 8.882 3.966 8.882 8.867v70.933c0 4.901-3.973 8.867-8.882 8.867h-71.059c-4.91 0-8.882-3.966-8.882-8.867zm8.883 97.533h177.647c4.91 0 8.882 3.966 8.882 8.867s-3.973 8.867-8.882 8.867h-177.647c-4.91 0-8.882-3.966-8.882-8.867-.001-4.901 3.972-8.867 8.882-8.867zm230.941-212.8h-284.236c-4.91 0-8.882 3.966-8.882 8.867v62.067h302v-62.067c0-4.901-3.973-8.867-8.882-8.867zm-230.941 53.2h-17.765c-4.909 0-8.882-3.966-8.882-8.867s3.973-8.867 8.882-8.867h17.765c4.909 0 8.882 3.966 8.882 8.867s-3.973 8.867-8.882 8.867zm53.294 0h-17.765c-4.909 0-8.882-3.966-8.882-8.867s3.973-8.867 8.882-8.867h17.765c4.909 0 8.882 3.966 8.882 8.867s-3.973 8.867-8.882 8.867zm53.294 0h-17.765c-4.91 0-8.882-3.966-8.882-8.867s3.973-8.867 8.882-8.867h17.765c4.91 0 8.882 3.966 8.882 8.867s-3.973 8.867-8.882 8.867z" fill="url(#SVGID_2_)"/></g></g></g></svg>