<svg id="Capa_1" enable-background="new 0 0 512 512" height="512" viewBox="0 0 512 512" width="512" xmlns="http://www.w3.org/2000/svg" xmlns:xlink="http://www.w3.org/1999/xlink"><linearGradient id="SVGID_1_" gradientUnits="userSpaceOnUse" x1="256" x2="256" y1="512" y2="0"><stop offset="0" stop-color="#ffe59a"/><stop offset="1" stop-color="#ffffd5"/></linearGradient><linearGradient id="SVGID_2_" gradientUnits="userSpaceOnUse" x1="256" x2="256" y1="407" y2="105"><stop offset="0" stop-color="#ffde00"/><stop offset="1" stop-color="#fd5900"/></linearGradient><g><circle cx="256" cy="256" fill="url(#SVGID_1_)" r="256"/></g><g><g><path d="m353.5 256v-17.765c0-4.975-3.899-8.882-8.864-8.882h-26.591v17.765h17.727v8.882c0 37.839-26.768 70.881-63.818 78.342-.019.003-.032.019-.052.022-.022.004-.041-.005-.063-.001-9.556 2.099-22.124 2.099-31.681 0-.022-.004-.041.005-.063.001-.02-.003-.032-.018-.052-.022-37.049-7.461-63.818-40.503-63.818-78.342v-8.882h17.727v-17.765h-26.591c-4.964 0-8.864 3.908-8.864 8.882v17.765c0 43.849 29.488 81.955 70.909 93.662v39.574h-44.318c-4.899 0-8.864 3.973-8.864 8.882 0 4.91 3.964 8.882 8.864 8.882h141.818c4.899 0 8.864-3.973 8.864-8.882 0-4.91-3.964-8.882-8.864-8.882h-44.318v-39.574c41.424-11.707 70.912-49.813 70.912-93.662zm-159.545 0c0 34.286 27.832 62.177 62.045 62.177s62.045-27.891 62.045-62.177v-8.882h-124.09zm124.09-88.823c0-34.286-27.831-62.177-62.045-62.177s-62.045 27.891-62.045 62.177v62.176h124.091v-62.176zm-79.772 35.529c-4.895 0-8.864-3.977-8.864-8.882 0-4.906 3.969-8.882 8.864-8.882s8.864 3.976 8.864 8.882c-.001 4.905-3.969 8.882-8.864 8.882zm0-35.529c-4.895 0-8.864-3.977-8.864-8.882s3.969-8.882 8.864-8.882 8.864 3.977 8.864 8.882c-.001 4.904-3.969 8.882-8.864 8.882zm35.454 35.529c-4.895 0-8.864-3.977-8.864-8.882 0-4.906 3.969-8.882 8.864-8.882s8.864 3.976 8.864 8.882c0 4.905-3.969 8.882-8.864 8.882zm0-35.529c-4.895 0-8.864-3.977-8.864-8.882s3.969-8.882 8.864-8.882 8.864 3.977 8.864 8.882c0 4.904-3.969 8.882-8.864 8.882z" fill="url(#SVGID_2_)"/></g></g></svg>