<svg id="Capa_1" enable-background="new 0 0 512 512" height="512" viewBox="0 0 512 512" width="512" xmlns="http://www.w3.org/2000/svg" xmlns:xlink="http://www.w3.org/1999/xlink"><linearGradient id="SVGID_1_" gradientUnits="userSpaceOnUse" x1="256" x2="256" y1="512" y2="0"><stop offset="0" stop-color="#ffc8d1"/><stop offset="1" stop-color="#fff6f7"/></linearGradient><linearGradient id="SVGID_2_" gradientUnits="userSpaceOnUse" x1="256" x2="256" y1="407" y2="105"><stop offset="0" stop-color="#ffa68d"/><stop offset="1" stop-color="#fd3a84"/></linearGradient><g><circle cx="256" cy="256" fill="url(#SVGID_1_)" r="256"/></g><g><g><path d="m344.929 389.235h-12.289l-15.958-31.878c-3.499 1.663-6.857 3.552-10.521 4.936-16.031 6.089-32.931 9.177-50.161 9.177-17.126 0-33.956-3.097-50.04-9.203-3.431-1.282-6.568-3.054-9.855-4.583l-14.774 31.551h-14.26c-4.915 0-8.893 3.973-8.893 8.882 0 4.91 3.977 8.882 8.893 8.882h177.857c4.915 0 8.893-3.973 8.893-8.882s-3.977-8.882-8.892-8.882zm-88.929-151c4.898 0 8.893-3.981 8.893-8.882s-3.995-8.882-8.893-8.882-8.893 3.981-8.893 8.882 3.995 8.882 8.893 8.882zm0 35.53c24.525 0 44.464-19.925 44.464-44.412s-19.939-44.412-44.464-44.412-44.464 19.925-44.464 44.412 19.939 44.412 44.464 44.412zm0-71.059c14.711 0 26.679 11.953 26.679 26.647s-11.968 26.647-26.679 26.647-26.679-11.953-26.679-26.647 11.968-26.647 26.679-26.647zm0 151c68.474 0 124.5-56.075 124.5-124.353 0-68.569-55.858-124.353-124.5-124.353s-124.5 55.784-124.5 124.353c0 68.095 55.85 124.353 124.5 124.353zm0-186.529c34.321 0 62.25 27.896 62.25 62.176s-27.929 62.177-62.25 62.177-62.25-27.896-62.25-62.177 27.929-62.176 62.25-62.176z" fill="url(#SVGID_2_)"/></g></g></svg>