<svg id="Capa_1" enable-background="new 0 0 512 512" height="512" viewBox="0 0 512 512" width="512" xmlns="http://www.w3.org/2000/svg" xmlns:xlink="http://www.w3.org/1999/xlink"><linearGradient id="SVGID_1_" gradientUnits="userSpaceOnUse" x1="256" x2="256" y1="512" y2="0"><stop offset="0" stop-color="#addcff"/><stop offset=".5028" stop-color="#eaf6ff"/><stop offset="1" stop-color="#eaf6ff"/></linearGradient><linearGradient id="SVGID_2_" gradientUnits="userSpaceOnUse" x1="256" x2="256" y1="407" y2="105"><stop offset="0" stop-color="#00c0ff"/><stop offset="1" stop-color="#5558ff"/></linearGradient><g><circle cx="256" cy="256" fill="url(#SVGID_1_)" r="256"/></g><g><g><path d="m350.469 152.907c-3.478-3.47-9.111-3.47-12.589 0s-3.478 9.091 0 12.56c45.104 45.019 45.104 118.281 0 163.3-3.478 3.47-3.478 9.091 0 12.56 3.478 3.47 9.111 3.469 12.589 0 52.041-51.949 52.041-136.47 0-188.42zm-25.195 25.121c-3.478-3.47-9.111-3.47-12.589 0s-3.478 9.091 0 12.56c15.11 15.076 23.438 35.148 23.438 56.53s-8.329 41.454-23.438 56.53c-3.478 3.47-3.478 9.091 0 12.56 3.478 3.47 9.111 3.47 12.589 0 18.483-18.424 28.655-42.963 28.655-69.09s-10.171-50.666-28.655-69.09zm-25.177 25.129c-3.478-3.47-9.111-3.47-12.589 0s-3.478 9.09 0 12.56c8.398 8.371 13.006 19.526 13.006 31.401s-4.608 23.03-13.006 31.4c-3.478 3.47-3.478 9.091 0 12.56s9.111 3.469 12.589 0c11.754-11.728 18.222-27.332 18.222-43.961s-6.468-32.233-18.222-43.96zm-61.865 97.255h-26.707v106.588h26.707c4.921 0 8.903-3.973 8.903-8.882v-88.823c0-4.91-3.982-8.883-8.903-8.883zm-106.673-143.775c-4.138 24.669-9.059 61.934-9.059 99.363s4.921 74.693 9.059 99.363c5.008 29.917 30.828 51.637 61.413 51.637h.748v-302h-.748c-30.585 0-56.405 21.72-61.413 51.637zm106.673-51.637h-26.707v106.588h26.707c4.921 0 8.903-3.973 8.903-8.882v-88.823c0-4.91-3.982-8.883-8.903-8.883z" fill="url(#SVGID_2_)"/></g></g></svg>