<svg id="Capa_1" enable-background="new 0 0 512 512" height="512" viewBox="0 0 512 512" width="512" xmlns="http://www.w3.org/2000/svg" xmlns:xlink="http://www.w3.org/1999/xlink"><linearGradient id="SVGID_1_" gradientUnits="userSpaceOnUse" x1="256" x2="256" y1="512" y2="0"><stop offset="0" stop-color="#ffe59a"/><stop offset="1" stop-color="#ffffd5"/></linearGradient><linearGradient id="SVGID_2_" gradientUnits="userSpaceOnUse" x1="256" x2="256" y1="407" y2="105"><stop offset="0" stop-color="#ffde00"/><stop offset="1" stop-color="#fd5900"/></linearGradient><g><circle cx="256" cy="256" fill="url(#SVGID_1_)" r="256"/></g><g><g><path d="m202.706 176.059h-88.823c-4.91 0-8.882 3.973-8.882 8.882v106.588c0 4.91 3.973 8.882 8.882 8.882h88.823c4.91 0 8.883-3.973 8.883-8.882v-106.588c-.001-4.91-3.974-8.882-8.883-8.882zm159.882-71.059c-4.91 0-8.883 3.973-8.883 8.882v13.648c-12.987 10.76-66.527 52.684-124.353 63.614v94.182c57.826 10.931 111.365 52.854 124.353 63.614v13.648c0 4.91 3.973 8.882 8.883 8.882 4.909 0 8.882-3.973 8.882-8.882 0-8.334 0-241.917 0-248.706.001-4.909-3.972-8.882-8.882-8.882zm-230.941 275.353c0 14.694 11.953 26.647 26.647 26.647s26.647-11.953 26.647-26.647v-62.176h-53.294zm257.588-177.424v70.612c10.722-8.114 17.765-20.853 17.765-35.306 0-14.452-7.043-27.191-17.765-35.306z" fill="url(#SVGID_2_)"/></g></g></svg>