<svg id="Capa_1" enable-background="new 0 0 512 512" height="512" viewBox="0 0 512 512" width="512" xmlns="http://www.w3.org/2000/svg" xmlns:xlink="http://www.w3.org/1999/xlink"><linearGradient id="SVGID_1_" gradientUnits="userSpaceOnUse" x1="256" x2="256" y1="512" y2="0"><stop offset="0" stop-color="#addcff"/><stop offset=".5028" stop-color="#eaf6ff"/><stop offset="1" stop-color="#eaf6ff"/></linearGradient><linearGradient id="SVGID_2_" gradientUnits="userSpaceOnUse" x1="256" x2="256" y1="407" y2="105"><stop offset="0" stop-color="#00c0ff"/><stop offset="1" stop-color="#5558ff"/></linearGradient><g><circle cx="256" cy="256" fill="url(#SVGID_1_)" r="256"/></g><g><g><path d="m247.111 273.765c0 4.901 3.993 8.882 8.889 8.882s8.889-3.981 8.889-8.882v-17.765c0-4.901-3.993-8.882-8.889-8.882s-8.889 3.981-8.889 8.882zm17.778-79.764v36.988c10.324 3.679 17.778 13.446 17.778 25.011v17.765c0 14.694-11.962 26.647-26.667 26.647s-26.667-11.953-26.667-26.647v-17.765c0-11.565 7.453-21.332 17.778-25.011v-36.988c-45.333 2.665-71.111 24.87-71.111 61.999v71.059c0 44.056 35.911 79.941 80 79.941s80-35.885 80-79.941v-71.059c0-37.129-25.778-59.334-71.111-61.999zm0 0v-9.06c0-4.975 3.911-8.882 8.889-8.882h35.556c14.756 0 26.667-11.903 26.667-26.647 0-14.745-11.911-26.647-26.667-26.647h-106.667c-4.978 0-8.889-3.909-8.889-8.882 0-4.975-3.911-8.882-8.889-8.882s-8.889 3.908-8.889 8.882c0 14.744 11.911 26.647 26.667 26.647h106.667c4.978 0 8.889 3.908 8.889 8.882s-3.911 8.883-8.889 8.883h-35.556c-14.756 0-26.667 11.902-26.667 26.647v9.06c2.844-.178 5.867-.178 8.889-.178s6.045-.001 8.889.177z" fill="url(#SVGID_2_)"/></g></g></svg>