<svg id="Capa_1" enable-background="new 0 0 512 512" height="512" viewBox="0 0 512 512" width="512" xmlns="http://www.w3.org/2000/svg" xmlns:xlink="http://www.w3.org/1999/xlink"><linearGradient id="SVGID_1_" gradientUnits="userSpaceOnUse" x1="256" x2="256" y1="512" y2="0"><stop offset="0" stop-color="#c3ffe8"/><stop offset=".9973" stop-color="#f0fff4"/></linearGradient><linearGradient id="SVGID_2_" gradientUnits="userSpaceOnUse" x1="256" x2="256" y1="407" y2="105"><stop offset="0" stop-color="#9cffac"/><stop offset="1" stop-color="#00b59c"/></linearGradient><g><circle cx="256" cy="256" fill="url(#SVGID_1_)" r="256"/></g><g><g><path d="m256 335.931c43.06 0 79.773-34.682 79.773-79.953 0-4.91-3.964-8.884-8.864-8.884h-141.818c-4.899 0-8.864 3.973-8.864 8.884 0 44.481 35.794 79.953 79.773 79.953zm-56.402-189.792c31.092-31.162 81.712-31.162 112.804 0 3.462 3.47 9.071 3.47 12.534 0 3.462-3.47 3.462-9.092 0-12.562-38.017-38.103-99.854-38.103-137.871 0-3.462 3.47-3.462 9.092 0 12.562s9.071 3.47 12.533 0zm100.27 25.132c3.462-3.47 3.462-9.092 0-12.562-24.202-24.239-63.534-24.239-87.736 0-3.462 3.47-3.462 9.092 0 12.562s9.071 3.47 12.534 0c17.277-17.316 45.392-17.316 62.669 0 3.462 3.471 9.071 3.471 12.533 0zm-25.067 25.125c3.462-3.47 3.462-9.092 0-12.562-10.352-10.393-27.249-10.393-37.601 0-3.462 3.47-3.462 9.092 0 12.562s9.071 3.47 12.534 0c3.462-3.47 9.071-3.47 12.534 0 3.461 3.47 9.07 3.47 12.533 0zm69.835 192.837h-46.785l-13.337-40.21c-10.14 3.085-17.651 4.676-28.515 4.676-11.445 0-19.245-1.852-28.53-4.632l-13.321 40.166h-46.785c-4.899 0-8.864 3.973-8.864 8.884 0 4.91 3.964 8.884 8.864 8.884h177.273c4.899 0 8.864-3.973 8.864-8.884s-3.964-8.884-8.864-8.884zm-97.5-168.789v8.884h17.727v-8.884c0-4.91-3.964-8.884-8.864-8.884s-8.863 3.973-8.863 8.884z" fill="url(#SVGID_2_)"/></g></g></svg>