<svg id="Capa_1" enable-background="new 0 0 512 512" height="512" viewBox="0 0 512 512" width="512" xmlns="http://www.w3.org/2000/svg" xmlns:xlink="http://www.w3.org/1999/xlink"><linearGradient id="SVGID_1_" gradientUnits="userSpaceOnUse" x1="256" x2="256" y1="512" y2="0"><stop offset="0" stop-color="#ffe59a"/><stop offset="1" stop-color="#ffffd5"/></linearGradient><linearGradient id="SVGID_2_" gradientUnits="userSpaceOnUse" x1="256" x2="256" y1="407" y2="105"><stop offset="0" stop-color="#ffde00"/><stop offset="1" stop-color="#fd5900"/></linearGradient><g><circle cx="256" cy="256" fill="url(#SVGID_1_)" r="256"/></g><g><g><path d="m149.412 176.059h17.765c4.91 0 8.882-3.973 8.882-8.882v-53.294c0-4.91-3.973-8.882-8.882-8.882h-17.765c-4.91 0-8.882 3.973-8.882 8.882v53.294c-.001 4.909 3.972 8.882 8.882 8.882zm97.706 0h17.765c4.91 0 8.882-3.973 8.882-8.882v-53.294c0-4.91-3.973-8.882-8.882-8.882h-17.765c-4.91 0-8.882 3.973-8.882 8.882v53.294c-.001 4.909 3.972 8.882 8.882 8.882zm97.705 0h17.765c4.91 0 8.882-3.973 8.882-8.882v-53.294c0-4.91-3.973-8.882-8.882-8.882h-17.765c-4.91 0-8.882 3.973-8.882 8.882v53.294c0 4.909 3.973 8.882 8.882 8.882zm-79.941 88.823h35.529v-35.529h-35.529zm-53.294 106.589h35.529v-35.53h-35.529zm53.294-53.294h35.529v-35.53h-35.529zm0 53.294h35.529v-35.53h-35.529zm-53.294-106.589h35.529v-35.529h-35.529zm-53.294 53.295h35.529v-35.53h-35.529zm53.294 0h35.529v-35.53h-35.529zm106.589 53.294h35.529v-35.53h-35.529zm79.941-230.942h-8.882v26.647c0 14.694-11.953 26.647-26.647 26.647h-17.765c-14.694 0-26.647-11.953-26.647-26.647v-26.647h-26.647v26.647c0 14.694-11.953 26.647-26.647 26.647h-17.765c-14.694 0-26.647-11.953-26.647-26.647v-26.647h-26.647v26.647c0 14.694-11.953 26.647-26.647 26.647h-17.765c-14.694 0-26.647-11.953-26.647-26.647v-26.647h-8.882c-4.91 0-8.882 3.973-8.882 8.882v248.706c0 4.91 3.973 8.882 8.882 8.882h284.235c4.91 0 8.882-3.973 8.882-8.882v-248.705c0-4.91-3.973-8.883-8.882-8.883zm-26.647 239.824c0 4.909-3.973 8.882-8.882 8.882h-213.177c-4.91 0-8.882-3.973-8.882-8.882v-159.882c0-4.91 3.973-8.883 8.882-8.883h213.177c4.91 0 8.882 3.973 8.882 8.883zm-213.177-8.882h35.529v-35.53h-35.529zm159.883-106.589h35.529v-35.529h-35.529zm-159.883 0h35.529v-35.529h-35.529zm159.883 53.295h35.529v-35.53h-35.529z" fill="url(#SVGID_2_)"/></g></g></svg>