<svg id="Capa_1" enable-background="new 0 0 512 512" height="512" viewBox="0 0 512 512" width="512" xmlns="http://www.w3.org/2000/svg" xmlns:xlink="http://www.w3.org/1999/xlink"><linearGradient id="SVGID_1_" gradientUnits="userSpaceOnUse" x1="256" x2="256" y1="512" y2="0"><stop offset="0" stop-color="#ffbef9"/><stop offset="1" stop-color="#fff1ff"/></linearGradient><linearGradient id="SVGID_2_" gradientUnits="userSpaceOnUse" x1="256" x2="256" y1="407" y2="105"><stop offset="0" stop-color="#ff81ff"/><stop offset="1" stop-color="#a93aff"/></linearGradient><g><circle cx="256" cy="256" fill="url(#SVGID_1_)" r="256"/></g><g><g><path d="m336.1 105h-160.2c-4.919 0-8.9 3.973-8.9 8.882v284.235c0 4.91 3.981 8.882 8.9 8.882h160.2c4.919 0 8.9-3.973 8.9-8.882v-284.235c0-4.909-3.981-8.882-8.9-8.882zm-71.2 266.471h-17.8c-4.919 0-8.9-3.973-8.9-8.883 0-4.909 3.981-8.882 8.9-8.882h17.8c4.919 0 8.9 3.973 8.9 8.882 0 4.91-3.981 8.883-8.9 8.883zm26.7-106.589c-6.863 0-13.065-2.669-17.8-6.931-4.735 4.261-10.937 6.931-17.8 6.931-14.723 0-26.7-11.953-26.7-26.647s11.977-26.647 26.7-26.647 26.7 11.953 26.7 26.647c0 4.901 3.998 8.882 8.9 8.882s8.9-3.981 8.9-8.882c0-24.487-19.955-44.412-44.5-44.412s-44.5 19.925-44.5 44.412 19.955 44.412 44.5 44.412c5.093 0 10.099-.85 14.845-2.524 4.641-1.657 9.7.772 11.368 5.413 1.634 4.623-.8 9.698-5.423 11.328-6.675 2.359-13.663 3.548-20.79 3.548-34.348 0-62.3-27.896-62.3-62.176s27.952-62.177 62.3-62.177 62.3 27.896 62.3 62.177c0 14.693-11.977 26.646-26.7 26.646zm-35.6-35.529c-4.902 0-8.9 3.981-8.9 8.882s3.998 8.882 8.9 8.882 8.9-3.981 8.9-8.882-3.998-8.882-8.9-8.882z" fill="url(#SVGID_2_)"/></g></g></svg>