<svg id="Capa_1" enable-background="new 0 0 512 512" height="512" viewBox="0 0 512 512" width="512" xmlns="http://www.w3.org/2000/svg" xmlns:xlink="http://www.w3.org/1999/xlink"><linearGradient id="SVGID_1_" gradientUnits="userSpaceOnUse" x1="256" x2="256" y1="512" y2="0"><stop offset="0" stop-color="#addcff"/><stop offset=".5028" stop-color="#eaf6ff"/><stop offset="1" stop-color="#eaf6ff"/></linearGradient><linearGradient id="SVGID_2_" gradientUnits="userSpaceOnUse" x1="256" x2="256" y1="371.5" y2="140.5"><stop offset="0" stop-color="#00c0ff"/><stop offset="1" stop-color="#5558ff"/></linearGradient><g><circle cx="256" cy="256" fill="url(#SVGID_1_)" r="256"/></g><g><g><path d="m398.118 318.192h-106.589c-4.91 0-8.882 3.974-8.882 8.885v8.885h-53.294v-8.885c0-4.911-3.973-8.885-8.882-8.885h-106.589c-4.906 0-8.882 3.978-8.882 8.885 0 24.534 19.884 44.423 44.412 44.423h213.177c24.528 0 44.412-19.889 44.412-44.423-.001-4.907-3.978-8.885-8.883-8.885zm-142.118-106.615c-4.892 0-8.882 3.982-8.882 8.885 0 4.902 3.99 8.885 8.882 8.885s8.882-3.982 8.882-8.885-3.99-8.885-8.882-8.885zm-10.409 106.615h20.818c3.661-10.342 13.532-17.769 25.12-17.769h97.706v-151.038c0-4.911-3.973-8.885-8.882-8.885h-248.706c-4.909 0-8.882 3.974-8.882 8.885v151.039h97.706c11.588-.001 21.459 7.426 25.12 17.768zm-51.768-97.731c0-34.289 27.896-62.192 62.177-62.192s62.177 27.903 62.177 62.192c0 14.698-11.953 26.654-26.647 26.654-6.849 0-13.039-2.67-17.765-6.932-4.725 4.262-10.915 6.932-17.765 6.932-14.694 0-26.647-11.956-26.647-26.654s11.953-26.654 26.647-26.654 26.647 11.956 26.647 26.654c0 4.902 3.99 8.885 8.882 8.885s8.882-3.982 8.882-8.885c0-24.493-19.916-44.423-44.412-44.423s-44.412 19.929-44.412 44.423 19.916 44.423 44.412 44.423c5.083 0 10.079-.85 14.815-2.525 4.615-1.657 9.68.772 11.346 5.414 1.631 4.625-.798 9.7-5.413 11.331-6.662 2.36-13.636 3.549-20.749 3.549-34.278.001-62.175-27.903-62.175-62.192z" fill="url(#SVGID_2_)"/></g></g></svg>