<svg id="Capa_1" enable-background="new 0 0 512 512" height="512" viewBox="0 0 512 512" width="512" xmlns="http://www.w3.org/2000/svg" xmlns:xlink="http://www.w3.org/1999/xlink"><linearGradient id="SVGID_1_" gradientUnits="userSpaceOnUse" x1="256" x2="256" y1="512" y2="0"><stop offset="0" stop-color="#ffe59a"/><stop offset="1" stop-color="#ffffd5"/></linearGradient><linearGradient id="SVGID_2_" gradientUnits="userSpaceOnUse" x1="256" x2="256" y1="353.5" y2="158.5"><stop offset="0" stop-color="#ffde00"/><stop offset="1" stop-color="#fd5900"/></linearGradient><g><circle cx="256" cy="256" fill="url(#SVGID_1_)" r="256"/></g><g><g><path d="m208.188 318.045-17.763 35.455h131.147l-17.76-35.455zm12.057-106.363c5.636 7.43 9.108 16.576 9.108 26.591s-3.472 19.161-9.108 26.591h71.51c-5.636-7.43-9.108-16.576-9.108-26.591s3.472-19.161 9.108-26.591zm-35.304 0c-14.694 0-26.647 11.928-26.647 26.591s11.953 26.591 26.647 26.591 26.647-11.928 26.647-26.591-11.953-26.591-26.647-26.591zm0 35.454c-4.905 0-8.882-3.969-8.882-8.864 0-4.896 3.977-8.864 8.882-8.864s8.882 3.968 8.882 8.864c0 4.895-3.977 8.864-8.882 8.864zm213.177-88.636h-284.236c-4.91 0-8.882 3.964-8.882 8.864v177.272c0 4.899 3.973 8.864 8.882 8.864h56.686l24.192-48.283c1.509-3.003 4.58-4.899 7.946-4.899h106.588c3.365 0 6.436 1.896 7.946 4.899l24.19 48.283h56.688c4.91 0 8.882-3.964 8.882-8.864v-177.272c0-4.9-3.973-8.864-8.882-8.864zm-71.059 124.091h-142.118c-24.496 0-44.412-19.883-44.412-44.318s19.916-44.318 44.412-44.318h142.118c24.496 0 44.412 19.883 44.412 44.318s-19.916 44.318-44.412 44.318zm0-70.909c-14.694 0-26.647 11.928-26.647 26.591s11.953 26.591 26.647 26.591 26.647-11.928 26.647-26.591-11.953-26.591-26.647-26.591zm0 35.454c-4.905 0-8.882-3.969-8.882-8.864 0-4.896 3.977-8.864 8.882-8.864s8.882 3.968 8.882 8.864c0 4.895-3.977 8.864-8.882 8.864z" fill="url(#SVGID_2_)"/></g></g></svg>