<svg id="Capa_1" enable-background="new 0 0 512 512" height="512" viewBox="0 0 512 512" width="512" xmlns="http://www.w3.org/2000/svg" xmlns:xlink="http://www.w3.org/1999/xlink"><linearGradient id="SVGID_1_" gradientUnits="userSpaceOnUse" x1="256" x2="256" y1="512" y2="0"><stop offset="0" stop-color="#c3ffe8"/><stop offset=".9973" stop-color="#f0fff4"/></linearGradient><linearGradient id="SVGID_2_" gradientUnits="userSpaceOnUse" x1="256" x2="256" y1="389" y2="123"><stop offset="0" stop-color="#9cffac"/><stop offset="1" stop-color="#00b59c"/></linearGradient><g><circle cx="256" cy="256" fill="url(#SVGID_1_)" r="256"/></g><g><g><path d="m317.24 259.966c1.509-3.005 1.18-6.598-.833-9.282l-53.294-70.934c-3.366-4.468-10.86-4.468-14.226 0l-53.294 70.934c-2.012 2.684-2.342 6.278-.833 9.282s4.58 4.901 7.946 4.901h17.765v79.8c0 4.901 3.973 8.867 8.882 8.867h53.294c4.91 0 8.882-3.966 8.882-8.867v-79.8h17.765c3.366 0 6.436-1.897 7.946-4.901zm-34.593 111.301h-53.294c-4.91 0-8.882 3.966-8.882 8.867s3.973 8.867 8.882 8.867h53.294c4.91 0 8.882-3.966 8.882-8.867s-3.972-8.867-8.882-8.867zm79.403-176.684c-4.042-30.358-30.151-53.849-61.639-53.849-6.037 0-12.022.875-17.851 2.615-14.746-13.162-33.43-20.349-53.207-20.349-41.306 0-75.396 31.44-79.525 71.6-25.38 4.061-44.828 26.072-44.828 52.533 0 29.336 23.906 53.2 53.294 53.2h44.412v-17.733c-10.149 0-19.274-5.628-23.819-14.686-4.563-9.066-3.608-19.733 2.481-27.855l53.311-70.951c4.927-6.546 12.89-10.443 21.321-10.443s16.394 3.896 21.304 10.425l53.311 70.951c6.107 8.139 7.061 18.807 2.498 27.873-4.545 9.057-13.671 14.686-23.819 14.686v17.733h44.412c29.388 0 53.294-23.864 53.294-53.2 0-26.505-19.517-48.541-44.95-52.55z" fill="url(#SVGID_2_)"/></g></g></svg>