<svg id="Capa_1" enable-background="new 0 0 512 512" height="512" viewBox="0 0 512 512" width="512" xmlns="http://www.w3.org/2000/svg" xmlns:xlink="http://www.w3.org/1999/xlink"><linearGradient id="SVGID_1_" gradientUnits="userSpaceOnUse" x1="256" x2="256" y1="512" y2="0"><stop offset="0" stop-color="#c3ffe8"/><stop offset=".9973" stop-color="#f0fff4"/></linearGradient><linearGradient id="SVGID_2_" gradientUnits="userSpaceOnUse" x1="256" x2="256" y1="398" y2="114"><stop offset="0" stop-color="#9cffac"/><stop offset="1" stop-color="#00b59c"/></linearGradient><g><circle cx="256" cy="256" fill="url(#SVGID_1_)" r="256"/></g><g><g><path d="m309.294 309.25h-17.765v-79.875c0-4.906-3.973-8.875-8.882-8.875h-53.294c-4.91 0-8.882 3.969-8.882 8.875v79.875h-17.765c-3.366 0-6.436 1.898-7.946 4.906-1.509 3.008-1.18 6.604.833 9.291l53.294 71c1.683 2.236 4.32 3.553 7.113 3.553s5.43-1.317 7.113-3.553l53.294-71c2.012-2.687 2.342-6.283.833-9.291-1.51-3.008-4.58-4.906-7.946-4.906zm52.756-123.6c-4.042-30.386-30.151-53.9-61.639-53.9-6.037 0-12.022.875-17.851 2.617-14.746-13.173-33.43-20.367-53.207-20.367-41.306 0-75.396 31.47-79.525 71.667-25.38 4.065-44.828 26.097-44.828 52.583 0 29.364 23.906 53.25 53.294 53.25h44.412v-62.125c0-14.682 11.953-26.625 26.647-26.625h53.294c14.694 0 26.647 11.943 26.647 26.625v62.125h44.412c29.388 0 53.294-23.886 53.294-53.25 0-26.53-19.517-48.587-44.95-52.6zm-79.403-.65h-53.294c-4.91 0-8.882-3.969-8.882-8.875s3.973-8.875 8.882-8.875h53.294c4.91 0 8.882 3.969 8.882 8.875s-3.972 8.875-8.882 8.875z" fill="url(#SVGID_2_)"/></g></g></svg>