<svg id="Capa_1" enable-background="new 0 0 512 512" height="512" viewBox="0 0 512 512" width="512" xmlns="http://www.w3.org/2000/svg" xmlns:xlink="http://www.w3.org/1999/xlink"><linearGradient id="SVGID_1_" gradientUnits="userSpaceOnUse" x1="256" x2="256" y1="512" y2="0"><stop offset="0" stop-color="#ffc8d1"/><stop offset="1" stop-color="#fff6f7"/></linearGradient><linearGradient id="SVGID_2_" gradientUnits="userSpaceOnUse" x1="256" x2="256" y1="407" y2="105"><stop offset="0" stop-color="#ffa68d"/><stop offset="1" stop-color="#fd3a84"/></linearGradient><g><circle cx="256" cy="256" fill="url(#SVGID_1_)" r="256"/></g><g><g><path d="m247.115 248.754v-21.037c-2.793.995-5.755 1.636-8.885 1.636s-6.092-.641-8.885-1.636v21.037c2.793-.996 5.755-1.636 8.885-1.636 3.131 0 6.093.64 8.885 1.636zm-8.884-37.166c4.894 0 8.885-3.981 8.885-8.882s-3.991-8.882-8.885-8.882c-4.893 0-8.885 3.981-8.885 8.882s3.991 8.882 8.885 8.882zm88.846-106.588h-177.692c-4.911 0-8.885 3.973-8.885 8.882v284.235c0 4.91 3.974 8.882 8.885 8.882h177.692c4.911 0 8.885-3.973 8.885-8.882v-284.235c0-4.909-3.974-8.882-8.885-8.882zm-124.385 266.471c-4.906 0-8.885-3.977-8.885-8.883s3.978-8.882 8.885-8.882 8.885 3.976 8.885 8.882c0 4.905-3.978 8.883-8.885 8.883zm35.539 0c-4.906 0-8.885-3.977-8.885-8.883s3.978-8.882 8.885-8.882 8.885 3.976 8.885 8.882c-.001 4.905-3.979 8.883-8.885 8.883zm35.538 0c-4.906 0-8.885-3.977-8.885-8.883s3.978-8.882 8.885-8.882 8.885 3.976 8.885 8.882c0 4.905-3.978 8.883-8.885 8.883zm26.654-44.412c0 4.909-3.974 8.882-8.885 8.882h-106.615c-4.911 0-8.885-3.973-8.885-8.882v-177.647c0-4.909 3.974-8.882 8.885-8.882h106.615c4.911 0 8.885 3.973 8.885 8.882zm-106.615-8.882h88.846v-159.883h-88.846zm17.769-115.471c0-14.694 11.956-26.647 26.654-26.647s26.654 11.953 26.654 26.647v71.059c0 14.694-11.956 26.647-26.654 26.647s-26.654-11.953-26.654-26.647zm26.654 79.941c4.894 0 8.885-3.981 8.885-8.882s-3.991-8.882-8.885-8.882c-4.893 0-8.885 3.981-8.885 8.882s3.991 8.882 8.885 8.882zm124.384-124.353h-8.885v71.059h8.885c4.911 0 8.885-3.973 8.885-8.882v-53.294c0-4.91-3.974-8.883-8.885-8.883zm0 88.824h-8.885v71.059h8.885c4.911 0 8.885-3.973 8.885-8.882v-53.295c0-4.91-3.974-8.882-8.885-8.882z" fill="url(#SVGID_2_)"/></g></g></svg>