<svg id="Capa_1" enable-background="new 0 0 512 512" height="512" viewBox="0 0 512 512" width="512" xmlns="http://www.w3.org/2000/svg" xmlns:xlink="http://www.w3.org/1999/xlink"><linearGradient id="SVGID_1_" gradientUnits="userSpaceOnUse" x1="256" x2="256" y1="512" y2="0"><stop offset="0" stop-color="#addcff"/><stop offset=".5028" stop-color="#eaf6ff"/><stop offset="1" stop-color="#eaf6ff"/></linearGradient><linearGradient id="SVGID_2_" gradientUnits="userSpaceOnUse" x1="256" x2="256" y1="380.5" y2="131.5"><stop offset="0" stop-color="#00c0ff"/><stop offset="1" stop-color="#5558ff"/></linearGradient><g><circle cx="256" cy="256" fill="url(#SVGID_1_)" r="256"/></g><g><g><path d="m184.941 167.071h-17.765c-14.694 0-26.647 11.967-26.647 26.679v160.071c0 14.711 11.953 26.679 26.647 26.679h17.765c14.694 0 26.647-11.967 26.647-26.679v-160.071c0-14.711-11.953-26.679-26.647-26.679zm79.941 35.572h106.588v-17.786h-106.588zm133.236-71.143h-284.236c-4.91 0-8.882 3.978-8.882 8.893v213.428c0 4.916 3.973 8.893 8.882 8.893h8.882c0-26.028 0-150.632 0-168.964 0-24.516 19.916-44.464 44.412-44.464h17.765c24.496 0 44.412 19.948 44.412 44.464v168.964h168.765c4.91 0 8.882-3.978 8.882-8.893v-213.428c0-4.915-3.973-8.893-8.882-8.893zm-124.353 195.643h-17.765c-4.91 0-8.882-3.978-8.882-8.893 0-4.916 3.973-8.893 8.882-8.893h17.765c4.91 0 8.882 3.977 8.882 8.893 0 4.915-3.973 8.893-8.882 8.893zm0-35.572h-17.765c-4.91 0-8.882-3.977-8.882-8.893 0-4.915 3.973-8.893 8.882-8.893h17.765c4.91 0 8.882 3.978 8.882 8.893 0 4.916-3.973 8.893-8.882 8.893zm0-35.571h-17.765c-4.91 0-8.882-3.978-8.882-8.893 0-4.916 3.973-8.893 8.882-8.893h17.765c4.91 0 8.882 3.977 8.882 8.893 0 4.915-3.973 8.893-8.882 8.893zm53.294 71.143h-17.765c-4.91 0-8.883-3.978-8.883-8.893 0-4.916 3.973-8.893 8.883-8.893h17.765c4.909 0 8.882 3.977 8.882 8.893 0 4.915-3.973 8.893-8.882 8.893zm0-35.572h-17.765c-4.91 0-8.883-3.977-8.883-8.893 0-4.915 3.973-8.893 8.883-8.893h17.765c4.909 0 8.882 3.978 8.882 8.893 0 4.916-3.973 8.893-8.882 8.893zm0-35.571h-17.765c-4.91 0-8.883-3.978-8.883-8.893 0-4.916 3.973-8.893 8.883-8.893h17.765c4.909 0 8.882 3.977 8.882 8.893 0 4.915-3.973 8.893-8.882 8.893zm53.294 71.143h-17.765c-4.91 0-8.883-3.978-8.883-8.893 0-4.916 3.973-8.893 8.883-8.893h17.765c4.909 0 8.882 3.977 8.882 8.893 0 4.915-3.973 8.893-8.882 8.893zm0-35.572h-17.765c-4.91 0-8.883-3.977-8.883-8.893 0-4.915 3.973-8.893 8.883-8.893h17.765c4.909 0 8.882 3.978 8.882 8.893 0 4.916-3.973 8.893-8.882 8.893zm0-35.571h-17.765c-4.91 0-8.883-3.978-8.883-8.893 0-4.916 3.973-8.893 8.883-8.893h17.765c4.909 0 8.882 3.977 8.882 8.893 0 4.915-3.973 8.893-8.882 8.893zm8.882-44.464c0 4.916-3.973 8.893-8.882 8.893h-124.353c-4.91 0-8.882-3.977-8.882-8.893v-35.571c0-4.916 3.973-8.893 8.882-8.893h124.353c4.909 0 8.882 3.978 8.882 8.893z" fill="url(#SVGID_2_)"/></g></g></svg>