<svg id="Capa_1" enable-background="new 0 0 512 512" height="512" viewBox="0 0 512 512" width="512" xmlns="http://www.w3.org/2000/svg" xmlns:xlink="http://www.w3.org/1999/xlink"><linearGradient id="SVGID_1_" gradientUnits="userSpaceOnUse" x1="256" x2="256" y1="512" y2="0"><stop offset="0" stop-color="#ffe59a"/><stop offset="1" stop-color="#ffffd5"/></linearGradient><linearGradient id="SVGID_2_" gradientUnits="userSpaceOnUse" x1="256" x2="256" y1="371.5" y2="140.5"><stop offset="0" stop-color="#ffde00"/><stop offset="1" stop-color="#fd5900"/></linearGradient><g><circle cx="256" cy="256" fill="url(#SVGID_1_)" r="256"/></g><g><g><path d="m238.235 200.957v56.778l45.418-28.389zm159.883-60.457h-284.236c-4.91 0-8.882 3.974-8.882 8.885v213.231c0 4.911 3.973 8.885 8.882 8.885h284.235c4.91 0 8.882-3.974 8.882-8.885v-213.231c.001-4.911-3.972-8.885-8.881-8.885zm-177.647 44.423c0-3.228 1.752-6.204 4.58-7.774 2.828-1.544 6.298-1.466 9.004.243l71.059 44.423c2.602 1.623 4.181 4.469 4.181 7.531s-1.579 5.909-4.181 7.531l-71.06 44.423c-2.649 1.681-6.121 1.834-9.004.243-2.828-1.57-4.58-4.546-4.58-7.774v-88.846zm142.117 133.269h-168.765v8.885c0 4.911-3.973 8.885-8.882 8.885s-8.882-3.974-8.882-8.885v-8.885h-26.647c-4.909 0-8.882-3.974-8.882-8.885s3.973-8.885 8.882-8.885h26.647v-8.885c0-4.911 3.973-8.885 8.882-8.885 4.91 0 8.882 3.974 8.882 8.885v8.885h168.765c4.909 0 8.882 3.974 8.882 8.885.001 4.912-3.972 8.885-8.882 8.885z" fill="url(#SVGID_2_)"/></g></g></svg>