<svg id="Capa_1" enable-background="new 0 0 512 512" height="512" viewBox="0 0 512 512" width="512" xmlns="http://www.w3.org/2000/svg" xmlns:xlink="http://www.w3.org/1999/xlink"><linearGradient id="SVGID_1_" gradientUnits="userSpaceOnUse" x1="256" x2="256" y1="512" y2="0"><stop offset="0" stop-color="#ffbef9"/><stop offset="1" stop-color="#fff1ff"/></linearGradient><linearGradient id="SVGID_2_" gradientUnits="userSpaceOnUse" x1="256" x2="256" y1="407" y2="105"><stop offset="0" stop-color="#ff81ff"/><stop offset="1" stop-color="#a93aff"/></linearGradient><g><circle cx="256" cy="256" fill="url(#SVGID_1_)" r="256"/></g><g><g><path d="m264.875 282.647c-4.888 0-8.875 3.981-8.875 8.882s3.987 8.882 8.875 8.882 8.875-3.981 8.875-8.882-3.987-8.882-8.875-8.882zm53.25-106.588h-106.5c-4.906 0-8.875 3.973-8.875 8.882v106.588c0 34.28 27.873 62.177 62.125 62.177s62.125-27.896 62.125-62.177v-106.588c0-4.91-3.969-8.882-8.875-8.882zm-53.25 142.117c-14.682 0-26.625-11.953-26.625-26.647s11.943-26.647 26.625-26.647 26.625 11.953 26.625 26.647c0 14.695-11.943 26.647-26.625 26.647zm44.375-177.647h-26.625c-4.906 0-8.875-3.973-8.875-8.882s3.969-8.882 8.875-8.882h26.625v-8.882c0-4.91-3.969-8.882-8.875-8.882h-71c-4.906 0-8.875 3.973-8.875 8.882v8.882h26.625c4.906 0 8.875 3.973 8.875 8.882 0 4.91-3.969 8.882-8.875 8.882h-26.625v17.765h88.75zm-54.565 229.91c-3.372 10.846-13.376 18.796-25.31 18.796h-35.5c-4.906 0-8.875 3.973-8.875 8.882s3.969 8.882 8.875 8.882h35.5c21.714 0 39.75-15.707 43.56-36.345-2.689.274-5.3.815-8.06.815-3.49.002-6.818-.594-10.19-1.03z" fill="url(#SVGID_2_)"/></g></g></svg>