<svg id="Capa_1" enable-background="new 0 0 512 512" height="512" viewBox="0 0 512 512" width="512" xmlns="http://www.w3.org/2000/svg" xmlns:xlink="http://www.w3.org/1999/xlink"><linearGradient id="SVGID_1_" gradientUnits="userSpaceOnUse" x1="256" x2="256" y1="512" y2="0"><stop offset="0" stop-color="#ffe59a"/><stop offset="1" stop-color="#ffffd5"/></linearGradient><linearGradient id="SVGID_2_" gradientUnits="userSpaceOnUse" x1="256" x2="256" y1="403" y2="109"><stop offset="0" stop-color="#fd5900"/><stop offset="1" stop-color="#ffde00"/></linearGradient><g><circle cx="256" cy="256" fill="url(#SVGID_1_)" r="256"/></g><g><g><path d="m335.906 180.753c0 21.4-8.31 41.489-23.385 56.577-3.47 3.473-3.47 9.098 0 12.571 3.469 3.473 9.09 3.473 12.56 0 18.441-18.439 28.59-43 28.59-69.148 0-26.149-10.149-50.709-28.59-69.148-3.47-3.473-9.09-3.473-12.56 0s-3.47 9.098 0 12.571c15.076 15.088 23.385 35.177 23.385 56.577zm-48.505 43.998c3.47 3.473 9.09 3.473 12.56 0 11.728-11.737 18.181-27.355 18.181-43.998s-6.454-32.261-18.181-43.998c-3.47-3.473-9.091-3.473-12.56 0s-3.47 9.098 0 12.571c8.379 8.378 12.977 19.542 12.977 31.427s-4.597 23.049-12.977 31.427c-3.47 3.473-3.47 9.098 0 12.571zm-87.922 25.15c3.47-3.472 3.47-9.098 0-12.571-15.076-15.088-23.385-35.177-23.385-56.577s8.31-41.489 23.385-56.578c3.47-3.473 3.47-9.098 0-12.571s-9.09-3.473-12.56 0c-18.441 18.439-28.59 43-28.59 69.148 0 26.149 10.149 50.709 28.59 69.148 3.469 3.474 9.09 3.474 12.56.001zm12.56-25.15c3.469 3.473 9.09 3.473 12.56 0 3.47-3.472 3.47-9.098 0-12.571-8.379-8.378-12.977-19.542-12.977-31.427s4.597-23.05 12.977-31.427c3.47-3.473 3.47-9.098 0-12.571s-9.09-3.473-12.56 0c-11.728 11.737-18.181 27.355-18.181 43.998 0 16.642 6.454 32.26 18.181 43.998zm35.079-18.966v72.757h17.765v-72.757c10.317-3.682 17.765-13.458 17.765-25.032 0-14.707-11.953-26.67-26.647-26.67s-26.647 11.963-26.647 26.67c-.001 11.574 7.447 21.35 17.764 25.032zm151 90.536h-284.236c-4.91 0-8.882 3.976-8.882 8.89v71.119c0 4.914 3.973 8.89 8.882 8.89h26.647v8.89c0 4.914 3.973 8.89 8.882 8.89s8.882-3.976 8.882-8.89v-8.89h195.412v8.89c0 4.914 3.973 8.89 8.882 8.89s8.882-3.976 8.882-8.89v-8.89h26.647c4.91 0 8.882-3.976 8.882-8.89v-71.119c.002-4.914-3.971-8.89-8.88-8.89zm-142.118 53.34c-4.905 0-8.882-3.98-8.882-8.89s3.977-8.89 8.882-8.89 8.882 3.979 8.882 8.89c0 4.909-3.977 8.89-8.882 8.89zm35.529 0c-4.905 0-8.882-3.98-8.882-8.89s3.977-8.89 8.882-8.89 8.882 3.979 8.882 8.89c.001 4.909-3.976 8.89-8.882 8.89zm35.53 0c-4.905 0-8.882-3.98-8.882-8.89s3.977-8.89 8.882-8.89 8.882 3.979 8.882 8.89c0 4.909-3.977 8.89-8.882 8.89zm35.529 0c-4.905 0-8.882-3.98-8.882-8.89s3.977-8.89 8.882-8.89 8.882 3.979 8.882 8.89c.001 4.909-3.977 8.89-8.882 8.89z" fill="url(#SVGID_2_)"/></g></g></svg>