<svg id="Capa_1" enable-background="new 0 0 512 512" height="512" viewBox="0 0 512 512" width="512" xmlns="http://www.w3.org/2000/svg" xmlns:xlink="http://www.w3.org/1999/xlink"><linearGradient id="SVGID_1_" gradientUnits="userSpaceOnUse" x1="256" x2="256" y1="512" y2="0"><stop offset="0" stop-color="#ffc8d1"/><stop offset="1" stop-color="#fff6f7"/></linearGradient><linearGradient id="SVGID_2_" gradientUnits="userSpaceOnUse" x1="256" x2="256" y1="407" y2="105"><stop offset="0" stop-color="#ffa68d"/><stop offset="1" stop-color="#fd3a84"/></linearGradient><g><circle cx="256" cy="256" fill="url(#SVGID_1_)" r="256"/></g><g><g><path d="m380.353 122.765h-17.765c-4.91 0-8.883 3.973-8.883 8.882v35.53c0 4.909 3.973 8.882 8.883 8.882 14.694 0 26.647 11.953 26.647 26.647 0 4.91 3.973 8.882 8.882 8.882s8.882-3.973 8.882-8.882v-53.294c.001-14.694-11.952-26.647-26.646-26.647zm-88.824 88.823c4.91 0 8.882-3.973 8.882-8.882 0-14.694 11.953-26.647 26.647-26.647 4.909 0 8.882-3.973 8.882-8.882v-35.53c0-4.909-3.973-8.882-8.882-8.882h-17.765c-14.694 0-26.647 11.953-26.647 26.647v53.294c.001 4.909 3.974 8.882 8.883 8.882zm-133.235-17.765h53.294v-35.529h-53.294zm26.647 53.295c-14.694 0-26.647 11.953-26.647 26.647s11.953 26.647 26.647 26.647 26.647-11.953 26.647-26.647-11.953-26.647-26.647-26.647zm0 35.529c-4.905 0-8.882-3.977-8.882-8.882 0-4.906 3.977-8.882 8.882-8.882s8.882 3.976 8.882 8.882c0 4.905-3.977 8.882-8.882 8.882zm79.941 62.176v-230.941c0-4.91-3.973-8.882-8.882-8.882h-142.118c-4.91 0-8.882 3.973-8.882 8.882v230.941c0 4.91 3.973 8.883 8.882 8.883h142.118c4.91 0 8.882-3.973 8.882-8.883zm-79.941-26.647c-24.496 0-44.412-19.924-44.412-44.412 0-24.487 19.916-44.412 44.412-44.412s44.412 19.925 44.412 44.412c0 24.488-19.916 44.412-44.412 44.412zm44.412-115.47c0 4.91-3.973 8.882-8.882 8.882h-71.059c-4.909 0-8.882-3.973-8.882-8.882v-53.294c0-4.909 3.973-8.882 8.882-8.882h71.059c4.909 0 8.882 3.973 8.882 8.882zm159.882 25.011v28.283c0 14.694-11.953 26.647-26.647 26.647h-62.177v-54.93c-2.793.995-5.753 1.636-8.882 1.636s-6.089-.641-8.882-1.636v134.872c0 14.694-11.953 26.647-26.647 26.647-11.565 0-21.332-7.448-25.012-17.765h-18.502c4.127 20.246 22.061 35.529 43.514 35.529 24.496 0 44.412-19.925 44.412-44.412v-62.177h62.177c24.495.001 44.411-19.924 44.411-44.411v-28.283c-2.793.995-5.753 1.636-8.882 1.636s-6.09-.641-8.883-1.636z" fill="url(#SVGID_2_)"/></g></g></svg>