<svg id="Capa_1" enable-background="new 0 0 512 512" height="512" viewBox="0 0 512 512" width="512" xmlns="http://www.w3.org/2000/svg" xmlns:xlink="http://www.w3.org/1999/xlink"><linearGradient id="SVGID_1_" gradientUnits="userSpaceOnUse" x1="256" x2="256" y1="512" y2="0"><stop offset="0" stop-color="#c3ffe8"/><stop offset=".9973" stop-color="#f0fff4"/></linearGradient><linearGradient id="SVGID_2_" gradientUnits="userSpaceOnUse" x1="256" x2="256" y1="407" y2="105"><stop offset="0" stop-color="#9cffac"/><stop offset="1" stop-color="#00b59c"/></linearGradient><g><circle cx="256" cy="256" fill="url(#SVGID_1_)" r="256"/></g><g><g><path d="m398.118 371.471h-117.106c-2.685-7.525-8.605-13.445-16.13-16.129v-19.4h62.177c4.909 0 8.882-3.973 8.882-8.883v-213.177c0-4.91-3.973-8.882-8.882-8.882h-142.118c-4.909 0-8.882 3.973-8.882 8.882v213.176c0 4.91 3.973 8.883 8.882 8.883h62.177v19.4c-7.525 2.684-13.445 8.604-16.13 16.129h-117.106c-4.91 0-8.882 3.973-8.882 8.882s3.973 8.882 8.882 8.882h117.106c3.68 10.318 13.447 17.766 25.012 17.766s21.332-7.448 25.012-17.765h117.106c4.91 0 8.882-3.973 8.882-8.882s-3.973-8.882-8.882-8.882zm-177.647-230.942h71.059c4.91 0 8.882 3.973 8.882 8.882 0 4.91-3.973 8.883-8.882 8.883h-71.059c-4.91 0-8.882-3.973-8.882-8.883-.001-4.909 3.972-8.882 8.882-8.882zm0 35.53h71.059c4.91 0 8.882 3.973 8.882 8.882s-3.973 8.882-8.882 8.882h-71.059c-4.91 0-8.882-3.973-8.882-8.882s3.972-8.882 8.882-8.882zm-8.883 44.412c0-4.91 3.973-8.883 8.882-8.883h71.059c4.91 0 8.882 3.973 8.882 8.883 0 4.909-3.973 8.882-8.882 8.882h-71.059c-4.909 0-8.882-3.973-8.882-8.882zm17.765 53.294c0-14.694 11.953-26.647 26.647-26.647s26.647 11.953 26.647 26.647-11.953 26.647-26.647 26.647-26.647-11.953-26.647-26.647zm26.647-8.883c-4.892 0-8.882 3.981-8.882 8.882s3.99 8.882 8.882 8.882 8.882-3.981 8.882-8.882-3.99-8.882-8.882-8.882z" fill="url(#SVGID_2_)"/></g></g></svg>