<svg id="Capa_1" enable-background="new 0 0 512 512" height="512" viewBox="0 0 512 512" width="512" xmlns="http://www.w3.org/2000/svg" xmlns:xlink="http://www.w3.org/1999/xlink"><linearGradient id="SVGID_1_" gradientUnits="userSpaceOnUse" x1="256" x2="256" y1="512" y2="0"><stop offset="0" stop-color="#ffe59a"/><stop offset="1" stop-color="#ffffd5"/></linearGradient><linearGradient id="SVGID_2_" gradientUnits="userSpaceOnUse" x1="256" x2="256" y1="407" y2="105"><stop offset="0" stop-color="#ffde00"/><stop offset="1" stop-color="#fd5900"/></linearGradient><g><circle cx="256" cy="256" fill="url(#SVGID_1_)" r="256"/></g><g><g><path d="m309.25 247.118h-106.5v71.059h106.5zm8.875-142.118h-124.25c-24.476 0-44.375 19.925-44.375 44.412v44.412h213v-44.412c0-24.487-19.899-44.412-44.375-44.412zm-17.75 71.059h-88.75c-4.906 0-8.875-3.973-8.875-8.882s3.969-8.882 8.875-8.882h88.75c4.906 0 8.875 3.973 8.875 8.882s-3.969 8.882-8.875 8.882zm-150.875 222.059c0 4.91 3.969 8.882 8.875 8.882h35.5c4.906 0 8.875-3.973 8.875-8.882v-26.647h106.5v26.647c0 4.91 3.969 8.882 8.875 8.882h35.5c4.906 0 8.875-3.973 8.875-8.882v-186.53h-213zm35.5-159.883c0-4.91 3.969-8.882 8.875-8.882h124.25c4.906 0 8.875 3.973 8.875 8.882v88.823c0 4.91-3.969 8.883-8.875 8.883h-124.25c-4.906 0-8.875-3.973-8.875-8.883z" fill="url(#SVGID_2_)"/></g></g></svg>