<svg id="Capa_1" enable-background="new 0 0 512 512" height="512" viewBox="0 0 512 512" width="512" xmlns="http://www.w3.org/2000/svg" xmlns:xlink="http://www.w3.org/1999/xlink"><linearGradient id="SVGID_1_" gradientUnits="userSpaceOnUse" x1="256" x2="256" y1="512" y2="0"><stop offset="0" stop-color="#addcff"/><stop offset=".5028" stop-color="#eaf6ff"/><stop offset="1" stop-color="#eaf6ff"/></linearGradient><linearGradient id="SVGID_2_" gradientUnits="userSpaceOnUse" x1="256" x2="256" y1="371.5" y2="140.5"><stop offset="0" stop-color="#00c0ff"/><stop offset="1" stop-color="#5558ff"/></linearGradient><g><circle cx="256" cy="256" fill="url(#SVGID_1_)" r="256"/></g><g><g><path d="m282.647 229.346h-53.294v88.846h53.294zm115.471-88.846h-284.236c-4.91 0-8.882 3.974-8.882 8.885v26.654h302v-26.654c0-4.911-3.973-8.885-8.882-8.885zm-204.294 133.269c0 4.902 3.99 8.885 8.882 8.885h8.882v-17.769h-8.882c-4.892 0-8.882 3.982-8.882 8.884zm124.352 0c0-4.902-3.99-8.884-8.882-8.884h-8.882v17.769h8.882c4.892 0 8.882-3.983 8.882-8.885zm-133.235 44.423h26.647v-17.77h-8.882c-14.694 0-26.647-11.956-26.647-26.654s11.953-26.654 26.647-26.654h8.882v-17.769h-26.647c-14.694 0-26.647 11.956-26.647 26.654v35.539c0 14.698 11.953 26.654 26.647 26.654zm-79.941 44.423c0 4.911 3.973 8.885 8.882 8.885h284.235c4.91 0 8.882-3.974 8.882-8.885v-168.807h-301.999zm35.529-106.615c0-24.494 19.916-44.423 44.412-44.423h142.118c24.496 0 44.412 19.929 44.412 44.423v35.539c0 24.493-19.916 44.423-44.412 44.423h-142.118c-24.496 0-44.412-19.93-44.412-44.423zm213.177 35.539v-35.539c0-14.698-11.953-26.654-26.647-26.654h-26.647v17.769h8.882c14.694 0 26.647 11.956 26.647 26.654s-11.953 26.654-26.647 26.654h-8.882v17.77h26.647c14.694-.001 26.647-11.957 26.647-26.654z" fill="url(#SVGID_2_)"/></g></g></svg>