<svg id="Capa_1" enable-background="new 0 0 512 512" height="512" viewBox="0 0 512 512" width="512" xmlns="http://www.w3.org/2000/svg" xmlns:xlink="http://www.w3.org/1999/xlink"><linearGradient id="SVGID_1_" gradientUnits="userSpaceOnUse" x1="256" x2="256" y1="512" y2="0"><stop offset="0" stop-color="#ffe59a"/><stop offset="1" stop-color="#ffffd5"/></linearGradient><linearGradient id="SVGID_2_" gradientUnits="userSpaceOnUse" x1="256" x2="256" y1="407" y2="105"><stop offset="0" stop-color="#ffde00"/><stop offset="1" stop-color="#fd5900"/></linearGradient><g><circle cx="256" cy="256" fill="url(#SVGID_1_)" r="256"/></g><g><g><path d="m247.1 221.638 28.456-18.932-28.456-18.933zm0 71.059 28.456-18.933-28.456-18.932zm89-187.697h-160.2c-4.919 0-8.9 3.973-8.9 8.882v284.235c0 4.91 3.981 8.882 8.9 8.882h160.2c4.919 0 8.9-3.973 8.9-8.882v-284.235c0-4.909-3.981-8.882-8.9-8.882zm-71.2 266.471h-17.8c-4.919 0-8.9-3.973-8.9-8.882s3.981-8.882 8.9-8.882h17.8c4.919 0 8.9 3.973 8.9 8.882s-3.981 8.882-8.9 8.882zm31.637-105.097c2.468 1.648 3.963 4.424 3.963 7.391s-1.495 5.742-3.963 7.391l-53.4 35.529c-6.252 4.174-13.837-1.109-13.837-7.391v-54.46l-21.763 14.481c-1.512 1.006-3.233 1.492-4.937 1.492-2.868 0-5.684-1.388-7.405-3.955-2.729-4.077-1.617-9.594 2.468-12.317l24.492-16.299-24.492-16.299c-4.085-2.724-5.197-8.24-2.468-12.317 2.729-4.085 8.274-5.152 12.342-2.463l21.763 14.481v-54.461c0-6.929 8.163-11.174 13.837-7.39l53.4 35.529c2.468 1.648 3.963 4.424 3.963 7.391 0 2.966-1.495 5.742-3.963 7.39l-42.292 28.139z" fill="url(#SVGID_2_)"/></g></g></svg>