<svg id="Capa_1" enable-background="new 0 0 512 512" height="512" viewBox="0 0 512 512" width="512" xmlns="http://www.w3.org/2000/svg" xmlns:xlink="http://www.w3.org/1999/xlink"><linearGradient id="SVGID_1_" gradientUnits="userSpaceOnUse" x1="256" x2="256" y1="512" y2="0"><stop offset="0" stop-color="#ffc8d1"/><stop offset="1" stop-color="#fff6f7"/></linearGradient><linearGradient id="SVGID_2_" gradientUnits="userSpaceOnUse" x1="255.965" x2="255.965" y1="407" y2="105"><stop offset="0" stop-color="#ffa68d"/><stop offset="1" stop-color="#fd3a84"/></linearGradient><g><circle cx="256" cy="256" fill="url(#SVGID_1_)" r="256"/></g><g><g><path d="m291.495 184.941c-4.892 0-8.882 3.981-8.882 8.882s3.99 8.883 8.882 8.883 8.882-3.981 8.882-8.883c0-4.9-3.99-8.882-8.882-8.882zm-35.53 97.706c-4.892 0-8.882 3.981-8.882 8.882s3.99 8.882 8.882 8.882 8.882-3.981 8.882-8.882-3.989-8.882-8.882-8.882zm.052-35.538c-22.463 0-39.963 16.491-43.614 35.642-2.862 14.937 1.579 29.57 12.179 40.162 25.054 25.095 68.347 12.01 74.945-22.605 2.862-14.937-1.579-29.57-12.179-40.161-8.483-8.493-19.568-13.038-31.331-13.038zm-.052 71.067c-14.694 0-26.647-11.953-26.647-26.647s11.953-26.647 26.647-26.647 26.647 11.953 26.647 26.647c0 14.695-11.953 26.647-26.647 26.647zm-35.529-115.47c4.892 0 8.882-3.981 8.882-8.883 0-4.9-3.99-8.882-8.882-8.882s-8.882 3.981-8.882 8.882c-.001 4.902 3.99 8.883 8.882 8.883zm124.353-97.706h-177.647c-4.91 0-8.882 3.973-8.882 8.882v284.235c0 4.91 3.973 8.882 8.882 8.882h177.647c4.91 0 8.882-3.973 8.882-8.882v-284.235c0-4.909-3.973-8.882-8.882-8.882zm-142.118 35.529c4.905 0 8.882 3.976 8.882 8.882 0 4.905-3.977 8.882-8.882 8.882s-8.882-3.977-8.882-8.882c0-4.906 3.977-8.882 8.882-8.882zm17.765 26.647c14.694 0 26.647 11.953 26.647 26.647s-11.953 26.647-26.647 26.647-26.647-11.953-26.647-26.647 11.953-26.647 26.647-26.647zm-17.765 204.295c-4.905 0-8.882-3.977-8.882-8.882 0-4.907 3.977-8.882 8.882-8.882s8.882 3.976 8.882 8.882c0 4.905-3.977 8.882-8.882 8.882zm53.485-17.791c-16.464 0-32.372-6.427-44.134-18.207-14.607-14.599-20.991-35.555-17.071-56.052 9.288-48.695 69.949-66.884 104.958-31.834 14.607 14.599 20.991 35.556 17.071 56.053-5.297 27.764-29.961 50.04-60.824 50.04zm53.103 17.791c-4.905 0-8.882-3.977-8.882-8.882 0-4.907 3.977-8.882 8.882-8.882s8.882 3.976 8.882 8.882c.001 4.905-3.976 8.882-8.882 8.882zm-17.764-151c-14.694 0-26.647-11.953-26.647-26.647s11.953-26.647 26.647-26.647 26.647 11.953 26.647 26.647-11.953 26.647-26.647 26.647zm17.764-62.177c-4.905 0-8.882-3.977-8.882-8.882 0-4.906 3.977-8.882 8.882-8.882s8.882 3.976 8.882 8.882c.001 4.905-3.976 8.882-8.882 8.882zm79.491 53.745c-3.47-3.47-9.091-3.47-12.56 0s-3.47 9.091 0 12.561c8.379 8.371 12.977 19.525 12.977 31.4s-4.597 23.03-12.977 31.4c-3.47 3.47-3.47 9.091 0 12.561s9.091 3.469 12.56 0c11.728-11.728 18.181-27.333 18.181-43.961s-6.454-32.233-18.181-43.961zm-253.009 0c-3.47-3.47-9.09-3.47-12.56 0-11.727 11.728-18.181 27.333-18.181 43.961s6.454 32.233 18.181 43.961c3.47 3.47 9.091 3.469 12.56 0 3.47-3.47 3.47-9.091 0-12.561-8.379-8.371-12.977-19.525-12.977-31.4s4.597-23.03 12.977-31.4c3.47-3.47 3.47-9.091 0-12.561z" fill="url(#SVGID_2_)"/></g></g></svg>