<svg id="Capa_1" enable-background="new 0 0 512 512" height="512" viewBox="0 0 512 512" width="512" xmlns="http://www.w3.org/2000/svg" xmlns:xlink="http://www.w3.org/1999/xlink"><linearGradient id="SVGID_1_" gradientUnits="userSpaceOnUse" x1="256" x2="256" y1="512" y2="0"><stop offset="0" stop-color="#ffbef9"/><stop offset="1" stop-color="#fff1ff"/></linearGradient><linearGradient id="SVGID_2_" gradientUnits="userSpaceOnUse" x1="120.156" x2="375.76" y1="391.844" y2="136.241"><stop offset="0" stop-color="#ff81ff"/><stop offset="1" stop-color="#a93aff"/></linearGradient><g><circle cx="256" cy="256" fill="url(#SVGID_1_)" r="256"/></g><g><g><path d="m300.455 105c-58.752 0-106.545 47.793-106.545 106.545 0 26.187 9.536 50.159 25.263 68.73l-19.939 19.937-6.277-6.279c-3.468-3.468-9.087-3.468-12.555 0l-72.799 72.799c-3.468 3.468-3.468 9.087 0 12.555l25.11 25.11c3.468 3.468 9.087 3.468 12.555 0l72.799-72.799c3.468-3.468 3.468-9.087 0-12.555l-6.278-6.276 19.939-19.938c18.57 15.726 42.542 25.261 68.727 25.261 58.752 0 106.545-47.793 106.545-106.545s-47.793-106.545-106.545-106.545zm0 177.576c-39.174 0-71.03-31.865-71.03-71.03s31.856-71.03 71.03-71.03 71.03 31.865 71.03 71.03-31.856 71.03-71.03 71.03zm0-124.304c-29.376 0-53.273 23.896-53.273 53.273s23.896 53.272 53.273 53.272 53.273-23.896 53.273-53.272-23.897-53.273-53.273-53.273z" fill="url(#SVGID_2_)"/></g></g></svg>