<svg id="Capa_1" enable-background="new 0 0 512 512" height="512" viewBox="0 0 512 512" width="512" xmlns="http://www.w3.org/2000/svg" xmlns:xlink="http://www.w3.org/1999/xlink"><linearGradient id="SVGID_1_" gradientUnits="userSpaceOnUse" x1="256" x2="256" y1="512" y2="0"><stop offset="0" stop-color="#ffe59a"/><stop offset="1" stop-color="#ffffd5"/></linearGradient><linearGradient id="SVGID_2_" gradientUnits="userSpaceOnUse" x1="256" x2="256" y1="407" y2="105"><stop offset="0" stop-color="#ffde00"/><stop offset="1" stop-color="#fd5900"/></linearGradient><g><circle cx="256" cy="256" fill="url(#SVGID_1_)" r="256"/></g><g><g><path d="m344.636 105h-177.272c-4.899 0-8.864 3.973-8.864 8.882v284.231c0 3.201 1.714 6.15 4.501 7.729 2.753 1.587 6.163 1.535 8.916-.113l84.083-50.552 84.083 50.552c2.755 1.653 6.166 1.685 8.916.113 2.787-1.579 4.501-4.528 4.501-7.729v-284.231c0-4.909-3.964-8.882-8.864-8.882zm-31.871 158.648-21.951 21.452 5.194 30.281c.571 3.331-.796 6.697-3.531 8.683-2.64 1.932-6.254 2.3-9.331.676l-27.146-14.295-27.145 14.295c-2.978 1.562-6.578 1.327-9.331-.676-2.735-1.986-4.103-5.352-3.531-8.683l5.194-30.281-21.951-21.451c-2.424-2.359-3.289-5.89-2.25-9.108 1.039-3.209 3.826-5.551 7.15-6.037l30.348-4.415 13.573-27.549c2.978-6.072 12.915-6.072 15.892 0l13.573 27.549 30.348 4.415c3.324.486 6.111 2.828 7.15 6.037 1.035 3.218.169 6.748-2.255 9.107zm-49.078-7.511-7.687-15.596-7.687 15.596c-1.281 2.62-3.791 4.441-6.665 4.857l-17.19 2.498 12.43 12.144c2.095 2.038 3.047 4.979 2.562 7.858l-2.943 17.149 15.373-8.093c2.506-1.34 5.644-1.389 8.24 0l15.373 8.093-2.943-17.149c-.485-2.88.468-5.82 2.562-7.858l12.43-12.144-17.19-2.498c-2.874-.416-5.384-2.238-6.665-4.857z" fill="url(#SVGID_2_)"/></g></g></svg>