<svg xmlns="http://www.w3.org/2000/svg" xmlns:xlink="http://www.w3.org/1999/xlink" width="1000" height="1000" viewBox="0 0 1000 1000">
  <defs>
    <radialGradient id="radial-gradient" cx="0.5" cy="0.5" r="0.5" gradientUnits="objectBoundingBox">
      <stop offset="0" stop-color="#fff"/>
      <stop offset="0.389" stop-color="#fff"/>
      <stop offset="0.715" stop-color="#fff"/>
      <stop offset="1" stop-color="#ccf"/>
    </radialGradient>
    <linearGradient id="linear-gradient" x1="0.5" y1="1" x2="0.5" gradientUnits="objectBoundingBox">
      <stop offset="0" stop-color="#50f"/>
      <stop offset="1" stop-color="#00c0ff"/>
    </linearGradient>
    <filter id="Path_1" x="116.5" y="88.5" width="796.086" height="613.542" filterUnits="userSpaceOnUse">
      <feOffset dx="20" dy="20" input="SourceAlpha"/>
      <feGaussianBlur stdDeviation="3" result="blur"/>
      <feFlood flood-opacity="0.251"/>
      <feComposite operator="in" in2="blur"/>
      <feComposite in="SourceGraphic"/>
    </filter>
    <linearGradient id="linear-gradient-2" x1="0.5" x2="0.5" y2="1" gradientUnits="objectBoundingBox">
      <stop offset="0" stop-color="#00c0ff"/>
      <stop offset="1" stop-color="#50f"/>
    </linearGradient>
    <filter id="Path_2" x="154.225" y="712.26" width="720.08" height="227.925" filterUnits="userSpaceOnUse">
      <feOffset dx="20" dy="20" input="SourceAlpha"/>
      <feGaussianBlur stdDeviation="3" result="blur-2"/>
      <feFlood flood-opacity="0.251"/>
      <feComposite operator="in" in2="blur-2"/>
      <feComposite in="SourceGraphic"/>
    </filter>
    <clipPath id="clip-CSN-icon">
      <rect width="1000" height="1000"/>
    </clipPath>
  </defs>
  <g id="CSN-icon" clip-path="url(#clip-CSN-icon)">
    <rect width="1000" height="1000" fill="#fff"/>
    <rect id="Rectangle_1" data-name="Rectangle 1" width="1000" height="1000" rx="150" fill="url(#radial-gradient)"/>
    <g transform="matrix(1, 0, 0, 1, 0, 0)" filter="url(#Path_1)">
      <path id="Path_1-2" data-name="Path 1" d="M608.979,61c-86.62,0-157.108,70.487-157.108,157.108,0,44.529,18.817,84.581,48.688,113.2l-71.973,98.667a111.24,111.24,0,0,0-124.5,22.742l-88.048-57.7a112.206,112.206,0,1,0-24.869,37.368l88.048,57.7A112.263,112.263,0,1,0,464.992,456.2l72.3-99.118c21.594,11.2,45.735,18.129,71.69,18.129,86.62,0,157.108-70.487,157.108-157.108S695.6,61,608.979,61ZM112.22,420.1a67.332,67.332,0,1,1,67.332-67.332A67.406,67.406,0,0,1,112.22,420.1ZM383.043,599.655a67.332,67.332,0,1,1,67.332-67.332A67.406,67.406,0,0,1,383.043,599.655ZM608.979,330.327A112.22,112.22,0,1,1,721.2,218.108,112.351,112.351,0,0,1,608.979,330.327Z" transform="translate(117 28)" stroke="#000" stroke-width="1" fill="url(#linear-gradient)"/>
    </g>
    <g transform="matrix(1, 0, 0, 1, 0, 0)" filter="url(#Path_2)">
      <path id="Path_2-2" data-name="Path 2" d="M192.688,272H66.736a52.035,52.035,0,0,1-10.406-1.141A53.49,53.49,0,0,1,45.319,267.3a50.932,50.932,0,0,1-10.406-6.244,42.356,42.356,0,0,1-8.8-9.265,45.944,45.944,0,0,1-6.11-12.622,53.322,53.322,0,0,1-2.283-16.18V128.458a52.034,52.034,0,0,1,1.141-10.406,53.491,53.491,0,0,1,3.558-11.011,49.334,49.334,0,0,1,6.311-10.406,43.74,43.74,0,0,1,9.332-8.8,46.141,46.141,0,0,1,12.555-6.11,52.669,52.669,0,0,1,16.113-2.283H192.688v34.912H66.736q-6.848,0-10.474,3.625t-3.625,10.742v94.263q0,6.714,3.693,10.406t10.406,3.693H192.688Zm217.4-56.665a61.409,61.409,0,0,1-2.618,18.6,55.544,55.544,0,0,1-6.915,14.569,46.161,46.161,0,0,1-10.071,10.742,61.758,61.758,0,0,1-11.951,7.251,59.872,59.872,0,0,1-12.555,4.163A58.457,58.457,0,0,1,353.955,272H219.275V237.088h134.68q10.071,0,15.643-5.908t5.573-15.845a25.569,25.569,0,0,0-1.477-8.862,20.426,20.426,0,0,0-4.23-6.982,18.634,18.634,0,0,0-6.714-4.565,23.14,23.14,0,0,0-8.8-1.611h-80.3a62.231,62.231,0,0,1-18.262-3.021,54.781,54.781,0,0,1-18.195-9.735,53.124,53.124,0,0,1-13.965-17.59q-5.573-10.876-5.573-26.587t5.573-26.52A53.528,53.528,0,0,1,255.4,82.468a62.231,62.231,0,0,1,18.262-3.021H392.493v34.912H273.657q-9.937,0-15.509,6.042t-5.573,15.979q0,10.071,5.573,15.912t15.509,5.841h80.566a61.65,61.65,0,0,1,11.951,1.544,59.829,59.829,0,0,1,12.555,4.364,60.579,60.579,0,0,1,11.884,7.452,50.3,50.3,0,0,1,10,10.809,53.042,53.042,0,0,1,6.915,14.5A62.239,62.239,0,0,1,410.083,215.335ZM631.506,257.1a17.228,17.228,0,0,1-1.41,6.982,17.982,17.982,0,0,1-3.76,5.573,17.069,17.069,0,0,1-5.573,3.693,17.626,17.626,0,0,1-6.848,1.343,18.792,18.792,0,0,1-6.512-1.208,15.239,15.239,0,0,1-5.841-3.894L474,136.38V272H439.087V94.351a16.714,16.714,0,0,1,3.021-9.735,18.724,18.724,0,0,1,7.721-6.512A17.715,17.715,0,0,1,460.034,77.1a16.593,16.593,0,0,1,9,4.9L596.594,215.066V79.446h34.912Zm68.079-32.361H675.549L667.358,79.446h40.417Zm5.505,29.675a16.431,16.431,0,0,1-1.41,6.781,18.21,18.21,0,0,1-3.76,5.505,17.257,17.257,0,0,1-5.505,3.693,16.8,16.8,0,0,1-6.647,1.343,17.206,17.206,0,0,1-17.322-17.322,16.8,16.8,0,0,1,1.343-6.647,17.257,17.257,0,0,1,3.693-5.505,18.211,18.211,0,0,1,5.505-3.76,16.431,16.431,0,0,1,6.781-1.41,16.113,16.113,0,0,1,6.647,1.41,18,18,0,0,1,9.265,9.265A16.113,16.113,0,0,1,705.09,254.41Z" transform="translate(137 636)" stroke="#707070" stroke-width="1" fill="url(#linear-gradient-2)"/>
    </g>
  </g>
</svg>
